<svg width="23" height="27" viewBox="0 0 23 27" fill="none" xmlns="http://www.w3.org/2000/svg">
<path d="M15.8644 1C16.1206 2.375 15.4801 3.75 14.7116 4.75C13.9432 5.75 12.5343 6.625 11.1253 6.5C10.8692 5.125 11.5096 3.875 12.2781 2.875C13.1747 1.875 14.5836 1.125 15.8644 1ZM19.963 22.75C20.6034 21.75 20.9877 21.125 21.5 20C17.5295 18.5 16.889 13 20.8596 11C19.7068 9.5 18.0418 8.75 16.3767 8.75C15.224 8.75 14.4555 9 13.687 9.25C13.0466 9.5 12.5343 9.625 11.8938 9.625C11.1254 9.625 10.613 9.375 9.84453 9.125C9.07604 8.875 8.30754 8.625 7.41097 8.625C5.61782 8.625 3.69659 9.625 2.54385 11.5C0.878783 14 1.13495 18.875 3.82467 22.875C4.97741 24.375 6.25823 26 7.9233 26C8.69179 26 9.07604 25.75 9.58836 25.625C10.2288 25.375 10.8692 25.125 11.8938 25.125C13.0466 25.125 13.5589 25.375 14.1993 25.625C14.7117 25.875 15.0959 26 15.8644 26C17.6575 26 18.9384 24.125 19.963 22.75Z" stroke="#FF6C6C" stroke-width="1.5" stroke-miterlimit="10" stroke-linecap="round" stroke-linejoin="round"/>
</svg>
