<svg width="23" height="27" viewBox="0 0 23 27" fill="none" xmlns="http://www.w3.org/2000/svg">
<path d="M21.2959 11.25H11.7041V15.875H17.3163C17.2143 17 16.602 18.75 15.2755 19.875C14.4592 20.625 13.2347 21.125 11.7041 21.125C9.05102 21.125 6.70408 19 5.88776 15.875C5.68367 15.125 5.58163 14.25 5.58163 13.375C5.58163 12.5 5.68367 11.625 5.88776 10.875C5.9898 10.625 5.9898 10.375 6.09184 10.25C7.0102 7.625 9.15306 5.75 11.7041 5.75C13.6429 5.75 14.8673 6.75 15.6837 7.625L18.5408 4.125C16.8061 2.25 14.4592 1 11.7041 1C7.72449 1 4.2551 3.75 2.62245 7.875C1.90816 9.625 1.5 11.5 1.5 13.5C1.5 15.5 1.90816 17.375 2.62245 19.125C4.2551 23.25 7.72449 26 11.7041 26C14.4592 26 16.8061 24.875 18.4388 23C20.3776 20.875 21.5 17.625 21.5 13.75C21.5 12.75 21.398 12 21.2959 11.25Z" stroke="#FF6C6C" stroke-width="1.5" stroke-miterlimit="10" stroke-linecap="round" stroke-linejoin="round"/>
</svg>
