<svg width="273" height="120" viewBox="0 0 273 120" fill="none" xmlns="http://www.w3.org/2000/svg">
<rect x="28.839" y="22.8859" width="154.847" height="32.2027" rx="16.1013" transform="rotate(-0.859718 28.839 22.8859)" fill="#CDD5F6"/>
<ellipse cx="27.9878" cy="36.4896" rx="27.2161" ry="32.7317" transform="rotate(-0.859718 27.9878 36.4896)" fill="#FBFBF7"/>
<path d="M69.4673 43.6422L68.344 39.8366L68.292 39.8374L67.2705 43.6751L64.7488 43.713L62.1371 36.8874L64.9188 36.8456L66.0195 40.8856L66.1105 40.8842L67.1285 36.8125L69.7022 36.7739L70.803 40.8138L70.894 40.8124L71.886 36.7411L74.4077 36.7032L71.989 43.6043L69.4673 43.6422ZM78.5986 36.4843C79.8551 36.4655 80.8171 36.7458 81.4845 37.3251C82.1606 37.9044 82.5078 38.8006 82.526 40.0138L82.5326 40.4558L77.3852 40.533C77.3926 41.0269 77.5065 41.3979 77.727 41.646C77.956 41.8939 78.3089 42.0143 78.7855 42.0072C79.2188 42.0007 79.5337 41.9049 79.7303 41.72C79.9355 41.5349 80.0359 41.2907 80.0313 40.9874L82.54 40.9497C82.5525 41.7816 82.246 42.4363 81.6204 42.9137C80.9948 43.3912 80.0755 43.639 78.8623 43.6572C77.5884 43.6763 76.5961 43.3965 75.8853 42.8178C75.1744 42.2304 74.8099 41.3344 74.7919 40.1299C74.7742 38.9513 75.1031 38.0536 75.7786 37.4368C76.4541 36.8199 77.3941 36.5024 78.5986 36.4843ZM78.7274 38.1336C77.9128 38.1458 77.4636 38.5383 77.3799 39.3109L79.9016 39.2731C79.8963 38.9178 79.788 38.6377 79.577 38.4329C79.3745 38.2279 79.0913 38.1281 78.7274 38.1336ZM83.9162 43.4253L83.7748 34.0014L86.3615 33.9626L86.503 43.3865L83.9162 43.4253ZM91.5971 36.2893C92.7237 36.2724 93.6372 36.5014 94.3378 36.9762C95.0468 37.4423 95.4088 38.1693 95.4236 39.1572L92.9149 39.1948C92.9032 38.4149 92.4727 38.0313 91.6235 38.0441C90.7742 38.0568 90.357 38.5528 90.3717 39.532L90.3828 40.273C90.3973 41.2435 90.8466 41.7222 91.7305 41.7089C92.6144 41.6956 93.0503 41.2904 93.0384 40.4931L95.4431 40.457C95.4581 41.4536 95.1182 42.1998 94.4236 42.6956C93.7376 43.1913 92.8314 43.4476 91.7048 43.4645C90.5003 43.4826 89.5512 43.1934 88.8575 42.5971C88.1638 42.0008 87.8081 41.1133 87.7904 39.9348C87.7727 38.7563 88.1016 37.8586 88.7771 37.2417C89.4526 36.6248 90.3926 36.3074 91.5971 36.2893ZM100.267 36.1592C101.472 36.1411 102.421 36.4346 103.115 37.0396C103.817 37.6358 104.177 38.5188 104.194 39.6887C104.212 40.8585 103.879 41.7563 103.195 42.382C102.519 42.9988 101.579 43.3163 100.375 43.3344C99.1702 43.3525 98.2211 43.0633 97.5274 42.467C96.8337 41.8707 96.478 40.9832 96.4603 39.8047C96.4426 38.6262 96.7715 37.7285 97.447 37.1116C98.1225 36.4947 99.0625 36.1773 100.267 36.1592ZM100.293 37.914C99.4442 37.9267 99.0269 38.4227 99.0416 39.4019L99.0527 40.1429C99.0673 41.1134 99.4992 41.5923 100.348 41.5796C101.206 41.5667 101.628 41.075 101.613 40.1044L101.602 39.3635C101.588 38.3843 101.151 37.9011 100.293 37.914ZM114.5 35.9456C115.28 35.9339 115.869 36.1504 116.265 36.5952C116.662 37.0313 116.866 37.661 116.879 38.4842L116.945 42.9297L114.359 42.9685L114.297 38.835C114.292 38.5403 114.215 38.3075 114.065 38.1364C113.924 37.9565 113.723 37.8685 113.463 37.8724C113.16 37.8769 112.914 37.9846 112.727 38.1955C112.539 38.4063 112.448 38.6634 112.452 38.9667L112.513 42.9962L109.926 43.035L109.864 38.9015C109.86 38.6069 109.783 38.374 109.633 38.2029C109.491 38.023 109.291 37.935 109.031 37.9389C108.727 37.9434 108.482 38.0511 108.294 38.262C108.107 38.4728 108.015 38.7299 108.02 39.0332L108.08 43.0627L105.494 43.1015L105.391 36.2383L107.509 36.2065L107.694 37.2309C107.948 36.863 108.286 36.5719 108.708 36.3576C109.138 36.1344 109.591 36.0193 110.068 36.0121C111.099 35.9966 111.798 36.3805 112.165 37.1638C112.429 36.7958 112.767 36.5047 113.179 36.2905C113.601 36.0674 114.041 35.9525 114.5 35.9456ZM121.936 35.834C123.192 35.8152 124.154 36.0954 124.821 36.6748C125.498 37.2541 125.845 38.1503 125.863 39.3635L125.87 39.8054L120.722 39.8827C120.73 40.3766 120.843 40.7476 121.064 40.9957C121.293 41.2436 121.646 41.364 122.122 41.3568C122.556 41.3503 122.871 41.2546 123.067 41.0696C123.272 40.8845 123.373 40.6403 123.368 40.337L125.877 40.2994C125.889 41.1313 125.583 41.786 124.957 42.2634C124.332 42.7409 123.412 42.9887 122.199 43.0069C120.925 43.026 119.933 42.7462 119.222 42.1675C118.511 41.5801 118.147 40.6841 118.129 39.4796C118.111 38.301 118.44 37.4033 119.115 36.7864C119.791 36.1696 120.731 35.8521 121.936 35.834ZM122.064 37.4833C121.25 37.4955 120.801 37.888 120.717 38.6606L123.239 38.6228C123.233 38.2675 123.125 37.9874 122.914 37.7826C122.711 37.5776 122.428 37.4778 122.064 37.4833ZM135.963 35.7795L135.99 37.5343L134.534 37.5562L134.573 40.1689C134.578 40.4809 134.633 40.7097 134.739 40.8555C134.845 40.9926 135.037 41.059 135.314 41.0549L136.042 41.044L136.065 42.5648C135.858 42.6372 135.59 42.6976 135.262 42.7459C134.933 42.7941 134.647 42.8201 134.405 42.8237C133.642 42.8352 133.051 42.7054 132.631 42.4343C132.219 42.1631 132.009 41.6939 131.999 41.0266L131.947 37.595L130.985 37.6094L130.959 35.8546L132.025 35.8386L132.552 33.7505L134.476 33.7216L134.507 35.8014L135.963 35.7795ZM140.71 35.5523C141.914 35.5342 142.863 35.8277 143.557 36.4327C144.26 37.0289 144.62 37.9119 144.637 39.0818C144.655 40.2516 144.321 41.1494 143.637 41.7751C142.962 42.3919 142.022 42.7094 140.817 42.7275C139.613 42.7456 138.664 42.4564 137.97 41.8601C137.276 41.2638 136.921 40.3764 136.903 39.1978C136.885 38.0193 137.214 37.1216 137.89 36.5047C138.565 35.8878 139.505 35.5704 140.71 35.5523ZM140.736 37.3071C139.887 37.3198 139.47 37.8158 139.484 38.7951L139.495 39.536C139.51 40.5065 139.942 40.9854 140.791 40.9727C141.649 40.9598 142.071 40.4681 142.056 39.4975L142.045 38.7566C142.03 37.7774 141.594 37.2942 140.736 37.3071Z" fill="black"/>
<path d="M40.2821 66.057C43.4519 60.9035 50.3772 55.301 50.3772 55.301L182.548 53.3176C209.272 52.9166 212.711 85.0713 183.031 85.5167L38.8027 87.681C38.8027 87.681 37.1124 71.2104 40.2821 66.057Z" fill="#4555A4"/>
<path d="M70.5339 75.9976L70.4781 72.278C70.4712 71.8181 70.4791 71.3479 70.5019 70.8675C70.5346 70.377 70.5684 69.9664 70.6035 69.6358C70.6385 69.3053 70.6604 69.0949 70.669 69.0048L70.609 69.0057L68.8091 76.0235L66.2144 76.0624L64.19 69.117L64.13 69.1179C64.1413 69.2077 64.1695 69.4173 64.2144 69.7467C64.2692 70.0659 64.3203 70.4702 64.3676 70.9595C64.4148 71.4389 64.4419 71.9085 64.4488 72.3685L64.5046 76.0881L61.4599 76.1338L61.3051 65.8149L65.9846 65.7447L67.6337 71.6756L67.6937 71.6747L69.1492 65.6972L73.6637 65.6295L73.8185 75.9483L70.5339 75.9976ZM75.5956 67.0706L75.5652 65.0459L78.5499 65.0011L78.5802 67.0259L75.5956 67.0706ZM75.7284 75.9196L75.6095 68.0005L78.5942 67.9558L78.713 75.8749L75.7284 75.9196ZM85.9558 67.6653C86.8757 67.6515 87.5694 67.8961 88.037 68.3991C88.5046 68.9022 88.7456 69.6336 88.76 70.5935L88.837 75.7229L85.8523 75.7677L85.7808 70.9983C85.7757 70.6583 85.6816 70.3897 85.4986 70.1924C85.3255 69.985 85.079 69.8837 84.759 69.8885C84.389 69.894 84.0909 70.0185 83.8645 70.2619C83.6381 70.5054 83.5276 70.802 83.5328 71.152L83.6026 75.8015L80.6179 75.8463L80.4991 67.9272L82.9438 67.8905L83.1568 69.0874C83.4605 68.6628 83.8604 68.3218 84.3566 68.0643C84.8628 67.8067 85.3958 67.6737 85.9558 67.6653ZM96.381 75.6097L96.1092 74.4887C95.5423 75.3673 94.7089 75.8148 93.6091 75.8313C92.5392 75.8474 91.709 75.5098 91.1186 74.8186C90.5281 74.1274 90.2226 73.0969 90.2021 71.727C90.1817 70.3672 90.4563 69.3379 91.0259 68.6393C91.5953 67.9307 92.4149 67.5683 93.4848 67.5523C94.3947 67.5386 95.1392 67.8325 95.7183 68.4339L95.6629 64.7443L98.6476 64.6995L98.8108 75.5733L96.381 75.6097ZM94.4478 69.7431C93.5879 69.756 93.1657 70.2774 93.1811 71.3073L93.1931 72.1022C93.2084 73.1221 93.646 73.6255 94.5059 73.6126C94.9458 73.606 95.2735 73.4461 95.4888 73.1328C95.7041 72.8196 95.808 72.413 95.8005 71.913L95.7931 71.4181C95.7856 70.9181 95.6695 70.5148 95.4449 70.2082C95.2201 69.8915 94.8877 69.7365 94.4478 69.7431ZM104.598 67.3855C105.988 67.3647 107.083 67.7033 107.884 68.4013C108.694 69.0892 109.11 70.1081 109.13 71.458C109.15 72.8078 108.766 73.8437 107.977 74.5656C107.197 75.2774 106.113 75.6437 104.723 75.6646C103.333 75.6854 102.238 75.3518 101.437 74.6638C100.637 73.9757 100.226 72.9517 100.206 71.5919C100.186 70.232 100.565 69.1962 101.345 68.4845C102.124 67.7727 103.209 67.4064 104.598 67.3855ZM104.629 69.4103C103.649 69.425 103.167 69.9973 103.184 71.1271L103.197 71.9821C103.214 73.1019 103.712 73.6545 104.692 73.6398C105.682 73.625 106.169 73.0576 106.152 71.9377L106.139 71.0828C106.122 69.9529 105.619 69.3954 104.629 69.4103ZM112.322 70.2099C112.295 68.4601 112.756 67.1281 113.702 66.2138C114.658 65.2893 116.026 64.8138 117.806 64.787C119.586 64.7603 120.967 65.1947 121.951 66.09C122.935 66.9853 123.439 68.3029 123.465 70.0427C123.483 71.2026 123.278 72.1858 122.85 72.9923C122.432 73.7887 121.811 74.398 120.987 74.8204L123.377 77.1698L119.433 77.229L117.816 75.4681C116.076 75.4642 114.729 75.0194 113.776 74.1336C112.832 73.2376 112.348 71.9298 112.322 70.2099ZM120.069 69.6136C120.058 68.8837 119.859 68.3066 119.473 67.8824C119.096 67.458 118.553 67.2511 117.843 67.2618C117.133 67.2724 116.596 67.4955 116.233 67.931C115.869 68.3665 115.693 68.9492 115.704 69.6791L115.719 70.639C115.729 71.3689 115.923 71.9461 116.3 72.3705C116.676 72.7949 117.219 73.0018 117.929 72.9911C118.639 72.9805 119.176 72.7574 119.539 72.3219C119.913 71.8862 120.094 71.3034 120.083 70.5735L120.069 69.6136ZM130.862 75.0923L130.649 73.8954C130.346 74.33 129.941 74.6761 129.435 74.9337C128.938 75.1812 128.41 75.3091 127.85 75.3175C126.93 75.3313 126.237 75.0867 125.769 74.5837C125.301 74.0806 125.06 73.3492 125.046 72.3893L124.969 67.2598L127.954 67.2151L128.025 71.9845C128.03 72.3245 128.119 72.5982 128.293 72.8056C128.476 73.0029 128.727 73.0991 129.047 73.0943C129.417 73.0888 129.715 72.9643 129.941 72.7209C130.168 72.4774 130.278 72.1807 130.273 71.8308L130.203 67.1813L133.188 67.1365L133.307 75.0556L130.862 75.0923ZM135.094 66.1778L135.063 64.153L138.048 64.1083L138.078 66.133L135.094 66.1778ZM135.227 75.0268L135.108 67.1077L138.092 67.0629L138.211 74.982L135.227 75.0268ZM143.715 72.8742L147.21 72.8218L147.24 74.8465L139.516 74.9624L139.502 73.9876L142.757 69.0181L139.608 69.0654L139.577 67.0406L146.986 66.9295L147 67.8593L143.715 72.8742ZM157.569 74.6915L157.112 73.2432L153.498 73.2975L153.085 74.7588L149.695 74.8097L153.305 64.4344L157.159 64.3765L161.079 74.6389L157.569 74.6915ZM154.153 70.9774L156.388 70.9438L155.253 67.2855L155.193 67.2864L154.153 70.9774ZM167.465 66.4421C168.535 66.4261 169.365 66.7637 169.956 67.4549C170.546 68.1461 170.852 69.1766 170.872 70.5465C170.893 71.9063 170.618 72.9406 170.049 73.6492C169.479 74.3478 168.66 74.7051 167.59 74.7212C166.67 74.735 165.925 74.4461 165.356 73.8546L165.412 77.5292L162.427 77.574L162.264 66.7002L164.693 66.6637L164.965 67.7848C165.532 66.9062 166.366 66.4586 167.465 66.4421ZM166.569 68.6608C166.129 68.6674 165.801 68.8274 165.586 69.1406C165.37 69.4539 165.266 69.8605 165.274 70.3604L165.281 70.8554C165.289 71.3553 165.405 71.7636 165.63 72.0803C165.854 72.387 166.187 72.537 166.627 72.5304C167.487 72.5175 167.909 71.9961 167.893 70.9662L167.881 70.1713C167.866 69.1514 167.428 68.6479 166.569 68.6608ZM177.469 66.292C178.539 66.276 179.369 66.6135 179.96 67.3048C180.55 67.996 180.856 69.0265 180.876 70.3964C180.897 71.7562 180.622 72.7904 180.053 73.4991C179.483 74.1977 178.663 74.555 177.593 74.5711C176.673 74.5849 175.929 74.296 175.36 73.7045L175.415 77.3791L172.431 77.4239L172.267 66.5501L174.697 66.5136L174.969 67.6347C175.536 66.7561 176.369 66.3085 177.469 66.292ZM176.572 68.5107C176.132 68.5173 175.805 68.6773 175.589 68.9905C175.374 69.3038 175.27 69.7104 175.278 70.2103L175.285 70.7053C175.293 71.2052 175.409 71.6135 175.634 71.9302C175.858 72.2368 176.19 72.3869 176.63 72.3803C177.49 72.3674 177.913 71.846 177.897 70.8161L177.885 70.0212C177.87 69.0013 177.432 68.4978 176.572 68.5107Z" fill="#FDFCEE"/>
<path d="M88.177 11.0349L132.806 10.3652" stroke="#E54346" stroke-width="5" stroke-linecap="round"/>
<path d="M206.281 47.9499L255.045 47.9499" stroke="#E54346" stroke-width="5" stroke-linecap="round"/>
<path d="M177.927 116.511L269.783 115.864" stroke="#E54346" stroke-width="5" stroke-linecap="round"/>
<path d="M128.229 101.944L157.981 101.498" stroke="#E54346" stroke-width="5" stroke-linecap="round"/>
</svg>
